<svg width="128" height="128" viewBox="0 0 128 128" fill="none" xmlns="http://www.w3.org/2000/svg">
  <defs>
    <linearGradient id="bg" x1="0" y1="0" x2="128" y2="128" gradientUnits="userSpaceOnUse">
      <stop stop-color="#1E3A5F"/>
      <stop offset="1" stop-color="#0E2036"/>
    </linearGradient>
  </defs>

  <!-- background -->
  <rect width="128" height="128" rx="28" fill="url(#bg)"/>

  <!-- dim JSONL rows -->
  <rect x="22" y="22" width="84" height="9" rx="4.5" fill="#46627F"/>
  <rect x="22" y="39" width="64" height="9" rx="4.5" fill="#46627F"/>
  <rect x="22" y="97" width="74" height="9" rx="4.5" fill="#46627F"/>

  <!-- highlighted (previewed) row -->
  <rect x="16" y="55" width="96" height="32" rx="9" fill="#2F81F7"/>

  <!-- left brace { -->
  <path d="M41 61 Q36 61 36 66 L36 68 Q36 71 32 71 Q36 71 36 74 L36 76 Q36 81 41 81"
        stroke="#FFFFFF" stroke-width="4" stroke-linecap="round" fill="none"/>

  <!-- right brace } -->
  <path d="M87 61 Q92 61 92 66 L92 68 Q92 71 96 71 Q92 71 92 74 L92 76 Q92 81 87 81"
        stroke="#FFFFFF" stroke-width="4" stroke-linecap="round" fill="none"/>

  <!-- key : value hint -->
  <rect x="47" y="68" width="12" height="6" rx="3" fill="#FFFFFF" fill-opacity="0.9"/>
  <rect x="65" y="68" width="17" height="6" rx="3" fill="#FFFFFF" fill-opacity="0.5"/>
</svg>
